HIERARCHY
ROOT joint_Root
{
	OFFSET 0.0 0.0 0.0
	CHANNELS 6 Xposition Yposition Zposition Zrotation Xrotation Yrotation 
	JOINT Hips
	{
		OFFSET -0.726466 93.3139 -2.00062
		CHANNELS 6 Xposition Yposition Zposition Zrotation Xrotation Yrotation 
		JOINT Spine
		{
			OFFSET 15.7357 0.0 0.0
			CHANNELS 6 Xposition Yposition Zposition Zrotation Xrotation Yrotation 
			JOINT Chest
			{
				OFFSET 8.98455 -0.406207 0.0
				CHANNELS 6 Xposition Yposition Zposition Zrotation Xrotation Yrotation 
				JOINT Neck
				{
					OFFSET 16.3773 0.0 0.0
					CHANNELS 6 Xposition Yposition Zposition Zrotation Xrotation Yrotation 
					JOINT Head
					{
						OFFSET 6.45672 0.0 0.0
						CHANNELS 6 Xposition Yposition Zposition Zrotation Xrotation Yrotation 
						End Site
						{
							OFFSET 0.0 0.0 0.0
						}
					}
				}
				JOINT Shoulder_L
				{
					OFFSET 12.9942 -0.242716 4.98039
					CHANNELS 6 Xposition Yposition Zposition Zrotation Xrotation Yrotation 
					JOINT UpperArm_L
					{
						OFFSET 5.34809 0.0 0.0
						CHANNELS 6 Xposition Yposition Zposition Zrotation Xrotation Yrotation 
						JOINT LowerArm_L
						{
							OFFSET 24.3286 1.87007e-05 0.0
							CHANNELS 6 Xposition Yposition Zposition Zrotation Xrotation Yrotation 
							JOINT Hand_L
							{
								OFFSET 22.2916 0.0 0.0
								CHANNELS 6 Xposition Yposition Zposition Zrotation Xrotation Yrotation 
								End Site
								{
									OFFSET 0.0 0.0 0.0
								}
							}
						}
					}
				}
				JOINT Shoulder_R
				{
					OFFSET 12.9945 -0.242716 -4.98039
					CHANNELS 6 Xposition Yposition Zposition Zrotation Xrotation Yrotation 
					JOINT UpperArm_R
					{
						OFFSET -5.34813 0.0 0.0
						CHANNELS 6 Xposition Yposition Zposition Zrotation Xrotation Yrotation 
						JOINT LowerArm_R
						{
							OFFSET -24.3289 0.000322201 0.0
							CHANNELS 6 Xposition Yposition Zposition Zrotation Xrotation Yrotation 
							JOINT Hand_R
							{
								OFFSET -22.2915 -0.000108084 0.0
								CHANNELS 6 Xposition Yposition Zposition Zrotation Xrotation Yrotation 
								End Site
								{
									OFFSET 0.0 0.0 0.0
								}
							}
						}
					}
				}
			}
		}
		JOINT UpperLeg_L
		{
			OFFSET -2.19248 -6.46944 0.0
			CHANNELS 6 Xposition Yposition Zposition Zrotation Xrotation Yrotation 
			JOINT LowerLeg_L
			{
				OFFSET 39.0811 0.0 -1.23785e-05
				CHANNELS 6 Xposition Yposition Zposition Zrotation Xrotation Yrotation 
				JOINT Foot_L
				{
					OFFSET 40.9854 0.0 -1.26872e-05
					CHANNELS 6 Xposition Yposition Zposition Zrotation Xrotation Yrotation 
					JOINT Toes_L
					{
						OFFSET 11.7543 0.0 0.0
						CHANNELS 6 Xposition Yposition Zposition Zrotation Xrotation Yrotation 
						End Site
						{
							OFFSET 0.0 0.0 0.0
						}
					}
				}
			}
		}
		JOINT UpperLeg_R
		{
			OFFSET -2.19251 6.46944 0.0
			CHANNELS 6 Xposition Yposition Zposition Zrotation Xrotation Yrotation 
			JOINT LowerLeg_R
			{
				OFFSET -39.0811 -0.00228153 -0.0401928
				CHANNELS 6 Xposition Yposition Zposition Zrotation Xrotation Yrotation 
				JOINT Foot_R
				{
					OFFSET -40.9854 0.0 0.0
					CHANNELS 6 Xposition Yposition Zposition Zrotation Xrotation Yrotation 
					JOINT Toes_R
					{
						OFFSET -11.7543 0.0 0.0
						CHANNELS 6 Xposition Yposition Zposition Zrotation Xrotation Yrotation 
						End Site
						{
							OFFSET 0.0 0.0 0.0
						}
					}
				}
			}
		}
	}
}
MOTION
Frames:	7
Frame Time:	0.0333333
0.000000 0.000000 0.000000 0.000000 0.000000 -0.000000 -1.348010 92.083900 -2.043680 87.499400 -1.403250 3.412410 15.735700 0.000005 -0.000001 87.998400 85.696300 -87.499900 8.984550 -0.406207 -0.000000 0.837692 -0.330646 0.998771 16.377300 -0.000001 -0.000001 0.605167 -2.887050 1.244720 6.456720 -0.000001 -0.000000 3.788850 -1.995250 -3.030640 12.994200 -0.242716 4.980390 -89.909900 -0.286625 -72.544800 5.348090 -0.000007 -0.000001 -67.892300 35.678700 -14.707000 24.328600 0.000019 0.000005 3.870900 8.197680 -25.385200 22.291600 -0.000001 0.000005 5.785300 5.525180 -7.582600 12.994500 -0.242716 -4.980390 88.111900 5.574070 -71.254000 -5.348130 -0.000001 -0.000004 -66.942800 36.241700 -15.393900 -24.328900 0.000322 -0.000009 3.830350 9.273570 -22.566100 -22.291500 -0.000108 -0.000004 8.950960 5.539940 -8.240540 -2.192480 -6.469440 -0.000000 -168.703000 -15.057900 -2.542190 39.081100 -0.000007 -0.000012 -0.184736 0.467554 21.559900 40.985400 -0.000006 -0.000013 -5.954040 3.548150 -63.773100 11.754300 -0.000000 0.000003 -0.000031 -0.000368 -16.591900 -2.192510 6.469440 -0.000001 175.190000 19.888200 179.072000 -39.081100 -0.002282 -0.040193 -0.044424 0.134839 19.498900 -40.985400 0.000008 0.000006 -2.811040 2.813780 -63.318800 -11.754300 -0.000006 -0.000006 -0.006754 -0.077537 -19.729400
0.000000 0.000000 0.000000 0.000000 0.000000 -0.000000 -1.333390 92.122600 -2.041280 87.547600 -1.399370 3.246850 15.735700 0.000005 -0.000001 88.228200 85.745600 -87.741000 8.984550 -0.406207 -0.000000 0.740058 -0.292850 0.975446 16.377300 -0.000001 -0.000001 0.449332 -2.869070 1.245800 6.456720 -0.000001 -0.000000 3.294220 -2.016480 -2.910410 12.994200 -0.242716 4.980390 -89.880600 -0.365672 -71.919200 5.348090 -0.000007 -0.000001 -69.170300 30.031300 -13.284200 24.328600 0.000019 0.000005 3.884000 7.837820 -26.467300 22.291600 -0.000001 0.000005 8.409170 5.537660 -8.134520 12.994500 -0.242716 -4.980390 88.073800 5.458990 -70.531000 -5.348130 -0.000001 -0.000004 -67.114100 32.652700 -14.473100 -24.328900 0.000322 -0.000009 5.251820 11.668500 -24.445300 -22.291500 -0.000108 -0.000004 9.240670 5.545700 -8.503680 -2.192480 -6.469440 -0.000000 -168.807000 -15.142600 -2.554950 39.081100 -0.000007 -0.000012 -0.178958 0.460302 21.245500 40.985400 -0.000006 -0.000013 -5.940530 3.577060 -63.612700 11.754300 -0.000000 0.000003 -0.000033 -0.000390 -16.592800 -2.192510 6.469440 -0.000001 175.241000 19.872200 178.959000 -39.081100 -0.002282 -0.040193 -0.033920 0.106052 19.349700 -40.985400 0.000008 0.000006 -2.436110 2.760610 -63.273000 -11.754300 -0.000006 -0.000006 -0.006501 -0.075318 -19.638900
0.000000 0.000000 0.000000 0.000000 0.000000 -0.000000 -1.313710 92.135500 -2.060620 87.557600 -1.418780 3.058370 15.735700 0.000005 -0.000001 88.365900 85.798600 -87.861900 8.984550 -0.406207 -0.000000 0.634809 -0.270893 1.008730 16.377300 -0.000001 -0.000001 0.362824 -2.856230 1.195780 6.456720 -0.000001 -0.000000 2.642190 -1.972020 -2.802600 12.994200 -0.242716 4.980390 -89.910200 -0.268471 -71.502800 5.348090 -0.000007 -0.000001 -69.047500 22.768600 -12.469700 24.328600 0.000019 0.000005 2.658520 5.148940 -27.356800 22.291600 -0.000001 0.000005 10.121900 5.552360 -8.817490 12.994500 -0.242716 -4.980390 88.081100 5.286510 -70.017000 -5.348130 -0.000001 -0.000004 -66.122200 27.963100 -14.209400 -24.328900 0.000322 -0.000009 5.054040 10.804600 -25.261400 -22.291500 -0.000108 -0.000004 10.812600 5.549800 -8.697500 -2.192480 -6.469440 -0.000000 -168.880000 -15.160300 -2.703810 39.081100 -0.000007 -0.000012 -0.177295 0.458187 21.154100 40.985400 -0.000006 -0.000013 -5.935830 3.557730 -63.569300 11.754300 -0.000000 0.000003 -0.000027 -0.000329 -16.590400 -2.192510 6.469440 -0.000001 175.303000 19.899200 178.764000 -39.081100 -0.002282 -0.040193 -0.032267 0.101704 19.286700 -40.985400 0.000008 0.000006 -2.395720 2.755200 -63.216600 -11.754300 -0.000006 -0.000006 -0.006796 -0.077902 -19.744300
0.000000 0.000000 0.000000 0.000000 0.000000 -0.000000 -1.304740 92.147900 -2.096090 87.555800 -1.440380 2.958350 15.735700 0.000005 -0.000001 88.255400 85.805000 -87.750900 8.984550 -0.406207 -0.000000 0.621454 -0.286778 1.009920 16.377300 -0.000001 -0.000001 0.081437 -2.810790 1.218180 6.456720 -0.000001 -0.000000 2.066840 -1.870600 -2.646290 12.994200 -0.242716 4.980390 -89.951200 -0.144577 -71.359200 5.348090 -0.000007 -0.000001 -66.671100 15.839000 -13.006400 24.328600 0.000019 0.000005 2.295160 4.281700 -28.227500 22.291600 -0.000001 0.000005 10.514400 5.553310 -8.863320 12.994500 -0.242716 -4.980390 88.098700 5.190880 -69.851000 -5.348130 -0.000001 -0.000004 -63.853100 22.044200 -14.932300 -24.328900 0.000322 -0.000009 4.374710 9.458850 -24.967900 -22.291500 -0.000108 -0.000004 11.625900 5.538680 -8.182810 -2.192480 -6.469440 -0.000000 -168.918000 -15.217300 -2.808250 39.081100 -0.000007 -0.000012 -0.176635 0.457782 21.099300 40.985400 -0.000006 -0.000013 -5.922010 3.560560 -63.510000 11.754300 -0.000000 0.000003 -0.000027 -0.000332 -16.590500 -2.192510 6.469440 -0.000001 175.369000 19.881700 178.632000 -39.081100 -0.002282 -0.040193 -0.028548 0.091261 19.250500 -40.985400 0.000008 0.000006 -2.307960 2.702420 -63.168800 -11.754300 -0.000006 -0.000006 -0.006875 -0.078582 -19.772000
0.000000 0.000000 0.000000 0.000000 0.000000 -0.000000 -1.303670 92.158100 -2.156200 87.568000 -1.410510 2.834790 15.735700 0.000005 -0.000001 87.880900 85.849500 -87.381200 8.984550 -0.406207 -0.000000 0.530882 -0.338391 1.000310 16.377300 -0.000001 -0.000001 -0.277017 -2.697160 1.235270 6.456720 -0.000001 -0.000000 1.346020 -1.762840 -2.359850 12.994200 -0.242716 4.980390 -89.926000 -0.217401 -71.208600 5.348090 -0.000007 -0.000001 -62.877900 9.624070 -14.421200 24.328600 0.000019 0.000005 2.390470 4.328420 -28.947600 22.291600 -0.000001 0.000005 10.973000 5.553910 -8.891500 12.994500 -0.242716 -4.980390 88.141200 5.043960 -69.739800 -5.348130 -0.000001 -0.000004 -60.652700 15.176500 -16.373400 -24.328900 0.000322 -0.000009 4.468130 9.868760 -24.514600 -22.291500 -0.000108 -0.000004 11.255300 5.514320 -7.120970 -2.192480 -6.469440 -0.000000 -168.983000 -15.160100 -2.956580 39.081100 -0.000007 -0.000012 -0.175451 0.456030 21.043700 40.985400 -0.000006 -0.000013 -5.925630 3.506150 -63.448300 11.754300 -0.000000 0.000003 -0.000027 -0.000327 -16.590400 -2.192510 6.469440 -0.000001 175.402000 19.946300 178.495000 -39.081100 -0.002282 -0.040193 -0.030731 0.097885 19.182300 -40.985400 0.000008 0.000006 -2.408890 2.732640 -63.085100 -11.754300 -0.000006 -0.000006 -0.006911 -0.078897 -19.784900
0.000000 0.000000 0.000000 0.000000 0.000000 -0.000000 -1.299820 92.186000 -2.215200 87.561300 -1.426870 2.632960 15.735700 0.000005 -0.000001 88.074500 85.924000 -87.568800 8.984550 -0.406207 -0.000000 0.382946 -0.306404 1.011740 16.377300 -0.000001 -0.000001 -0.858832 -2.646500 1.285160 6.456720 -0.000001 -0.000000 0.546868 -1.743260 -2.027200 12.994200 -0.242716 4.980390 -89.832100 -0.492931 -71.188800 5.348090 -0.000007 -0.000001 -58.951600 2.956500 -16.049300 24.328600 0.000019 0.000005 1.829180 3.128850 -30.333900 22.291600 -0.000001 0.000005 11.552700 5.562160 -9.293470 12.994500 -0.242716 -4.980390 88.199400 4.854190 -69.620100 -5.348130 -0.000001 -0.000004 -56.892100 7.636160 -18.089300 -24.328900 0.000322 -0.000009 4.716930 10.117700 -25.164300 -22.291500 -0.000108 -0.000004 10.880200 5.486230 -5.988850 -2.192480 -6.469440 -0.000000 -169.050000 -15.149500 -3.119790 39.081100 -0.000007 -0.000012 -0.172168 0.451563 20.870600 40.985400 -0.000006 -0.000013 -5.934900 3.429700 -63.326300 11.754300 -0.000000 0.000003 -0.000025 -0.000313 -16.589800 -2.192510 6.469440 -0.000001 175.519000 19.964800 178.287000 -39.081100 -0.002282 -0.040193 -0.026654 0.086823 19.048200 -40.985400 0.000008 0.000006 -2.246270 2.711400 -62.978400 -11.754300 -0.000006 -0.000006 -0.006653 -0.076658 -19.693500
0.000000 0.000000 0.000000 0.000000 0.000000 -0.000000 -1.293450 92.228200 -2.304440 87.557700 -1.442060 2.286570 15.735700 0.000005 -0.000001 88.497700 86.062200 -87.985500 8.984550 -0.406207 -0.000000 0.108154 -0.240647 1.023880 16.377300 -0.000001 -0.000001 -1.616310 -2.667580 1.365000 6.456720 -0.000001 -0.000000 -0.282427 -1.738580 -1.653470 12.994200 -0.242716 4.980390 -89.730000 -0.788439 -71.094000 5.348090 -0.000007 -0.000001 -54.841500 -3.734810 -17.884900 24.328600 0.000019 0.000005 0.621339 0.957651 -32.982400 22.291600 -0.000001 0.000005 12.030700 5.572540 -9.818780 12.994500 -0.242716 -4.980390 88.313400 4.525140 -69.533900 -5.348130 -0.000001 -0.000004 -53.007600 0.124623 -19.752000 -24.328900 0.000322 -0.000009 4.377700 8.532290 -27.299400 -22.291500 -0.000108 -0.000004 11.878600 5.475490 -5.576820 -2.192480 -6.469440 -0.000000 -169.178000 -15.186700 -3.431210 39.081100 -0.000007 -0.000012 -0.167608 0.445279 20.627100 40.985400 -0.000006 -0.000013 -5.923670 3.360960 -63.136600 11.754300 -0.000000 0.000003 -0.000028 -0.000339 -16.590800 -2.192510 6.469440 -0.000001 175.717000 19.982700 177.915000 -39.081100 -0.002282 -0.040193 -0.017886 0.062044 18.872400 -40.985400 0.000008 0.000006 -1.918760 2.663900 -62.839900 -11.754300 -0.000006 -0.000006 -0.006670 -0.076802 -19.699400
